HIERARCHY
ROOT Hips
{
	OFFSET 0.000000 0.000000 0.000000 
	CHANNELS 6 Xposition Yposition Zposition Zrotation Yrotation Xrotation
	JOINT LeftUpLeg
	{
		OFFSET 1.363060 -1.794630 0.839290 
		CHANNELS 3 Zrotation Yrotation Xrotation
		JOINT LeftLeg
		{
			OFFSET 2.448110 -6.726130 0.000000 
			CHANNELS 3 Zrotation Yrotation Xrotation
			JOINT LeftFoot
			{
				OFFSET 2.562200 -7.039590 0.000000 
				CHANNELS 3 Zrotation Yrotation Xrotation
				JOINT LeftToeBase
				{
					OFFSET 0.157640 -0.433110 2.322550 
					CHANNELS 3 Zrotation Yrotation Xrotation
					End Site
					{
						OFFSET 0.000000 0.000000 0.000000 
					}
				}
			}
		}
	}
	JOINT RightUpLeg
	{
		OFFSET -1.305520 -1.794630 0.839290 
		CHANNELS 3 Zrotation Yrotation Xrotation
		JOINT RightLeg
		{
			OFFSET -2.542530 -6.985550 0.000000 
			CHANNELS 3 Zrotation Yrotation Xrotation
			JOINT RightFoot
			{
				OFFSET -2.568260 -7.056230 0.000000 
				CHANNELS 3 Zrotation Yrotation Xrotation
				JOINT RightToeBase
				{
					OFFSET -0.164730 -0.452590 2.363150 
					CHANNELS 3 Zrotation Yrotation Xrotation
					End Site
					{
						OFFSET 0.000000 0.000000 0.000000 
					}
				}
			}
		}
	}
	JOINT Spine
	{
		OFFSET 0.028270 2.035590 -0.193380 
		CHANNELS 3 Zrotation Yrotation Xrotation
		JOINT Spine1
		{
			OFFSET 0.056720 2.048850 -0.042750 
			CHANNELS 3 Zrotation Yrotation Xrotation
			JOINT Neck1
			{
				OFFSET -0.054170 1.746240 0.172020 
				CHANNELS 3 Zrotation Yrotation Xrotation
				JOINT Head
				{
					OFFSET 0.104070 1.761360 -0.123970 
					CHANNELS 3 Zrotation Yrotation Xrotation
					End Site
					{
						OFFSET 0.000000 0.000000 0.000000 
					}
				}
			}
			JOINT LeftArm
			{
				OFFSET 3.362410 1.200890 -0.311210 
				CHANNELS 3 Zrotation Yrotation Xrotation
				JOINT LeftForeArm
				{
					OFFSET 4.983000 -0.000000 -0.000000 
					CHANNELS 3 Zrotation Yrotation Xrotation
					JOINT LeftHand
					{
						OFFSET 3.483560 -0.000000 -0.000000 
						CHANNELS 3 Zrotation Yrotation Xrotation
						JOINT LeftHandIndex1
						{
							OFFSET 0.715260 -0.000000 -0.000000 
							CHANNELS 3 Zrotation Yrotation Xrotation
							End Site
							{
								OFFSET 0.000000 0.000000 0.000000 
							}
						}
					}
				}
			}
			JOINT RightArm
			{
				OFFSET -3.136600 1.374050 -0.404650 
				CHANNELS 3 Zrotation Yrotation Xrotation
				JOINT RightForeArm
				{
					OFFSET -5.241900 -0.000000 -0.000000 
					CHANNELS 3 Zrotation Yrotation Xrotation
					JOINT RightHand
					{
						OFFSET -3.444170 -0.000000 -0.000000 
						CHANNELS 3 Zrotation Yrotation Xrotation
						JOINT RightHandIndex1
						{
							OFFSET -0.622530 -0.000000 -0.000000 
							CHANNELS 3 Zrotation Yrotation Xrotation
							End Site
							{
								OFFSET 0.000000 0.000000 0.000000 
							}
						}
					}
				}
			}
		}
	}
}
MOTION
Frames: 10
Frame Time: 0.041667
11.156907 14.320193 19.384324 30.127645 -18.701662 118.463780 -0.535746 38.108954 -34.545158 -28.832061 -10.117369 -2.055143 4.742176 17.525529 58.799810 0.341200 -3.753700 -10.384600 -30.228685 36.389469 -26.436783 4.933386 36.664046 42.571025 -33.277512 -25.031575 76.035963 -0.312900 3.596000 -9.942800 -25.919385 -56.498838 -40.988596 6.815618 24.680941 -0.998219 -5.964535 1.664225 16.861369 -0.082900 -0.138100 17.825600 42.597948 -11.467080 -114.445791 -2.034164 -10.853916 -0.917556 1.866377 1.516369 18.829942 -7.125000 0.000000 0.000000 -27.653824 -4.299967 -90.286680 5.996144 2.720013 -1.614543 16.141311 -3.522014 38.914843 7.125000 0.000000 0.000000 
11.153859 14.311340 19.408995 30.234749 -18.388042 117.882820 3.926146 37.308848 -36.674900 -36.047882 -11.629797 -0.876570 6.723400 16.803406 59.436907 0.303400 -3.541700 -9.790800 -24.669081 36.871563 -27.849109 -0.783789 38.469720 41.426500 -35.812788 -25.980342 74.429983 -0.014400 0.774900 -2.129700 -34.465985 -61.864202 -46.428189 9.604907 17.651714 6.099036 -6.938307 2.194732 16.086132 0.096400 -0.176900 18.052200 44.593007 -5.480876 -112.606546 -1.636407 -3.904860 -0.848752 0.978702 2.385840 18.760595 -7.125000 0.000000 0.000000 -32.382266 -8.798296 -91.725695 4.637414 1.857230 -1.664685 16.358930 -3.867314 38.557336 7.125000 0.000000 0.000000 
11.151392 14.301472 19.430909 29.561787 -18.165430 116.543530 10.611762 36.661136 -37.831520 -46.727441 -14.286738 3.770342 8.482355 16.150942 62.939108 0.208600 -2.940500 -8.113000 -19.843375 34.099585 -29.897360 -4.408582 36.041069 39.590269 -37.075836 -27.316685 72.905799 -0.139800 -2.409500 6.638800 -44.970355 -68.094824 -48.201690 14.661644 15.842394 12.285681 -6.376265 2.388365 15.389609 0.256000 -0.215100 18.270300 45.931027 -5.843733 -111.216631 -4.482573 0.680234 -0.782583 0.027148 2.847640 18.898826 -7.125000 0.000000 0.000000 -32.025255 -8.321076 -93.331100 0.530450 -1.691491 -1.667838 16.237124 -4.285747 37.942422 7.125000 0.000000 0.000000 
11.149651 14.290442 19.441068 26.995276 -16.490539 114.325565 21.245534 35.237228 -36.795877 -59.430011 -19.489092 19.325003 8.793651 14.077217 70.714461 0.141600 -2.425300 -6.682700 -15.571198 30.892267 -31.282162 -6.073905 30.372361 38.343083 -36.890879 -28.638151 72.003817 -0.629100 -5.075100 14.122800 -52.502786 -74.269586 -48.278355 18.016432 19.171366 17.496491 -4.733685 2.362805 14.428354 0.429800 -0.254000 18.496000 48.595420 -8.442227 -110.365567 -7.508435 2.363026 -0.703909 -0.690276 3.091284 19.252582 -7.125000 0.000000 0.000000 -31.241710 -5.063422 -96.420924 -4.830560 -5.174113 -1.612713 15.620877 -4.657410 37.603623 7.125000 0.000000 0.000000 
11.147764 14.279413 19.455000 20.815604 -13.260632 112.072748 30.528589 15.267066 -33.232962 -55.336175 -24.825030 51.650849 8.962932 10.840786 77.012373 0.098200 -2.021000 -5.563700 -12.360335 30.584046 -31.510618 -6.259617 26.613336 39.015399 -36.314898 -29.861822 72.127087 -1.122600 -6.730100 18.918300 -52.622269 -83.809719 -43.707964 15.069604 25.464503 21.525614 -2.613932 2.369726 13.335958 0.597100 -0.294900 18.725200 50.244578 -13.393439 -109.789156 -11.485159 -0.888126 -0.652192 -1.099984 2.969599 19.507450 -7.125000 0.000000 0.000000 -34.614010 -1.023635 -99.276422 -9.698333 -1.951505 -1.538072 14.857292 -4.786290 37.301740 7.125000 0.000000 0.000000 
11.146023 14.267658 19.469222 12.473956 -12.081816 111.234281 19.953657 -24.258388 -34.680301 -9.618246 -26.654787 68.566832 15.538364 10.819412 73.928456 0.070000 -1.706400 -4.695100 -11.392446 31.854265 -31.540062 -4.846381 25.134708 40.626248 -35.988886 -30.613709 73.217315 -1.460800 -7.638800 21.622300 -46.608700 -85.479095 -32.793509 7.501010 27.496271 18.166791 -2.011947 2.585139 12.355981 0.763700 -0.337000 18.957600 44.049817 -15.192774 -110.066855 -12.784431 -10.562081 -0.648528 -1.175494 2.293554 19.743849 -7.125000 0.000000 0.000000 -41.409374 1.112400 -99.310131 -12.232209 4.045491 -1.475663 14.314005 -4.527405 37.183141 7.125000 0.000000 0.000000 
11.144426 14.255467 19.484315 11.427967 -15.327190 109.140756 -1.786085 -32.332054 -39.780847 22.590943 -21.768510 52.241073 22.103014 12.142776 65.053487 0.053200 -1.488500 -4.093900 -12.250418 31.468225 -30.123397 -3.167127 25.990037 41.617949 -36.100145 -30.952887 74.597603 -1.621300 -8.028300 22.800000 -42.736867 -77.584260 -27.644525 4.559126 23.573265 10.820829 -2.945301 2.891349 11.650819 0.929500 -0.380300 19.192400 34.714060 -11.709701 -109.944189 -6.070203 -15.750371 -0.658014 -0.907687 1.743262 19.925163 -7.125000 0.000000 0.000000 -41.161364 0.758992 -99.279138 -10.021068 2.097646 -1.442853 14.351224 -4.087112 37.194394 7.125000 0.000000 0.000000 
11.142830 14.242841 19.500424 11.343156 -17.069581 107.988383 -7.905297 -26.792809 -41.817547 25.221487 -18.759150 41.403522 24.968736 14.123424 62.035411 0.042400 -1.329000 -3.654700 -13.153150 31.612117 -28.454287 -1.764638 29.078227 42.887723 -36.199722 -30.959414 75.995381 -1.622700 -8.031500 22.809700 -33.669589 -64.397910 -30.599247 1.020830 17.780155 2.722973 -4.769236 3.232330 12.211753 1.092200 -0.423900 19.427400 27.022281 -8.718674 -109.037583 1.734270 -13.574185 -0.651497 -0.513031 1.802877 20.038662 -7.125000 0.000000 0.000000 -35.927071 2.110884 -97.972218 -2.189339 -1.224476 -1.430759 14.969093 -3.650038 37.227681 7.125000 0.000000 0.000000 
11.141233 14.229925 19.516387 11.548540 -17.234046 108.271725 -8.774180 -24.932006 -41.832623 23.890122 -21.704544 40.280445 25.990749 15.485169 61.720607 0.030900 -1.134400 -3.118600 -13.613436 32.215231 -27.396947 -1.188036 32.522165 43.962176 -36.068032 -30.957438 77.056490 -1.629200 -8.046900 22.856600 -20.643096 -49.491047 -37.617066 -3.975167 14.880526 -0.847369 -5.054258 3.147265 14.317228 1.250200 -0.467100 19.660300 22.898176 -12.035856 -108.582939 3.424416 -9.027512 -0.627878 -0.310577 2.236375 20.104033 -7.125000 0.000000 0.000000 -35.007550 4.909314 -96.780372 4.834569 -1.090763 -1.379569 15.396944 -3.207047 37.295475 7.125000 0.000000 0.000000 
11.139347 14.216574 19.530319 12.700386 -17.443073 109.307370 -8.999610 -24.839578 -40.551908 22.446001 -26.949574 43.088142 25.885534 15.915448 61.988767 0.014300 -0.772800 -2.123800 -14.167859 33.067894 -26.612010 -1.159949 36.189809 44.732322 -35.780084 -30.963757 77.877142 -1.653800 -8.104300 23.031500 -14.275068 -36.361965 -43.538681 -6.057785 16.235288 -1.199539 -3.448703 2.601857 16.756537 1.406400 -0.508800 19.887700 25.230792 -19.562350 -108.547291 -0.367193 -7.146617 -0.601144 -0.282786 2.758345 20.130583 -7.125000 0.000000 0.000000 -34.715143 7.415206 -96.418971 8.329473 -1.679312 -1.294983 15.373799 -2.700545 37.374507 7.125000 0.000000 0.000000 
